<?xml version="1.0" encoding="utf-8"?>
<!-- Generator: Adobe Illustrator 17.0.0, SVG Export Plug-In . SVG Version: 6.00 Build 0)  -->
<!DOCTYPE svg PUBLIC "-//W3C//DTD SVG 1.1//EN" "http://www.w3.org/Graphics/SVG/1.1/DTD/svg11.dtd">
<svg version="1.1" id="Layer_1" xmlns="http://www.w3.org/2000/svg" xmlns:xlink="http://www.w3.org/1999/xlink" x="0px" y="0px"
	 width="211px" height="141.73px" viewBox="0 0 211 141.73" enable-background="new 0 0 211 141.73" xml:space="preserve">
<g>
	<path d="M207.199,55.069c-6.977,9.117-13.604,17.777-20.272,26.49c-4.302-1.145-2.74-3.27-0.935-5.224
		c3.024-3.274,5.468-6.654,3.661-11.499c-6.657-0.047-9.843,9.195-18.847,6.633c5.612-3.706,9.93-6.973,14.634-9.531
		c3.74-2.034,4.995-4.706,5.015-8.774c0.011-2.265,1.28-4.524,1.982-6.785c2.338,0.976,4.825,1.703,6.976,2.991
		C202.064,50.956,204.433,53.011,207.199,55.069z M201.967,55.676c-1.691-1.442-2.78-2.852-4.203-3.405
		c-0.864-0.336-3.199,0.575-3.237,1.055c-0.282,3.56-0.153,7.153-0.153,12.138C197.488,61.452,199.571,58.765,201.967,55.676z"/>
	<path d="M69.319,37.397c5.649-4.195,3.414-13.133,11.484-15.983c2.337,10.937,4.543,21.116,6.605,31.324
		c0.114,0.562-0.973,1.366-1.5,2.058c-0.776-0.792-2.033-1.472-2.25-2.395c-1.664-7.081-3.126-14.209-4.925-22.598
		c-6.06,8.988-9.578,17.277-5.148,27.379c-0.496,0.294-0.992,0.587-1.488,0.881c-0.995-0.876-2.625-1.595-2.885-2.651
		c-2.256-9.19-4.338-18.425-6.231-27.696c-0.175-0.859,1.318-2.059,2.804-4.214C67.198,29.051,68.197,32.983,69.319,37.397z"/>
	<path d="M41.393,44.656c2.933,6.795,5.87,13.598,8.806,20.401c-0.265,0.434-0.529,0.867-0.794,1.301
		c-1.246-0.657-3.164-1.005-3.631-2.021c-3.871-8.409-7.54-16.914-11.074-25.471c-0.427-1.035,0.309-2.551,0.549-4.121
		c2.887,2.478,4.834,5.462,6.653,5.386c2.416-0.102,4.731-2.591,7.427-4.264c-0.486-1.489-1.081-3.31-1.675-5.132
		c0.22-0.416,0.44-0.831,0.66-1.247c1.196,0.675,3.025,1.06,3.488,2.07c3.863,8.436,7.526,16.966,11.089,25.534
		c0.397,0.954-0.208,2.325-0.348,3.502c-1.023-0.779-2.496-1.341-2.993-2.373c-2.218-4.612-4.233-9.328-6.173-14.066
		c-1.687-4.118-3.927-4.997-7.476-1.911C44.728,43.264,43.103,43.765,41.393,44.656z"/>
	<path d="M162.773,29.739c1.213,0.663,2.197,1.201,3.347,1.83c-0.825,1.922-1.588,3.7-2.719,6.336
		c3.57,1.068,6.892,2.061,10.1,3.021c2.179-1.497,1.828-7.009,6.452-3.514c-4.063,9.215-8.079,18.454-12.261,27.617
		c-0.453,0.993-1.873,1.545-2.845,2.301c-0.161-1.242-0.797-2.667-0.401-3.694c1.906-4.939,3.957-9.833,6.219-14.619
		c1.78-3.763,0.822-5.572-3.282-6.07c-1.583-0.192-3.103-0.912-5.311-1.596c-2.64,5.748-5.288,11.742-8.185,17.614
		c-0.529,1.072-2.072,1.645-3.147,2.448c-0.073-1.249-0.587-2.684-0.15-3.717C154.528,48.406,158.63,39.185,162.773,29.739z"/>
	<path d="M20.383,64.459c2.961,3.754,6.032,7.43,8.811,11.315c0.745,1.041,0.599,2.72,0.862,4.105
		c-1.194-0.446-2.822-0.54-3.512-1.393c-5.732-7.087-11.362-14.262-16.82-21.562c-0.749-1.002-0.385-2.835-0.537-4.284
		c0.521-0.121,1.043-0.241,1.564-0.362c1.572,1.716,3.144,3.431,4.94,5.392c2.37-4.67-1.369-11.395,6.629-13.355
		c-0.69,3.482-0.965,6.731-2.022,9.702c-1.198,3.369,0.207,4.811,2.942,6.141c6.366,3.095,12.653,6.354,19.229,9.677
		c-1.915,3.237-3.71,3.25-6.729,1.286c-4.532-2.947-9.532-5.174-14.333-7.706C21.066,63.764,20.725,64.111,20.383,64.459z"/>
	<path d="M125.641,22c-0.499,10.268-0.925,20.542-1.627,30.798c-0.06,0.879-1.953,1.633-3.855,3.116c0-2.699-0.062-3.972,0.01-5.237
		c0.38-6.663,0.284-6.428-6.223-6.977c-4.65-0.392-4.755,2.114-4.795,5.391c-0.03,2.443,0.596,5.882-3.962,4.099
		C106.78,32.671,114.023,21.503,125.641,22z M121.701,26.726c-0.441-0.283-0.883-0.565-1.324-0.848
		c-1.826,1.765-4.017,3.289-5.383,5.358c-1.586,2.404-2.449,5.286-3.626,7.96c2.913,0.669,5.827,1.338,9.542,2.191
		C121.209,35.843,121.455,31.285,121.701,26.726z"/>
	<path d="M136.725,44.365c0.667-6.746,8.6-8.164,11.176-14.639c-3.053-0.866-5.896-1.673-9.241-2.622
		c-2.114,8.815-4.045,17.18-6.187,25.491c-0.344,1.335-1.632,2.426-2.484,3.63c-0.455-1.355-1.538-2.853-1.267-4.042
		c2.201-9.666,4.656-19.273,7.085-29.107c4.847,1.118,9.375,2.031,13.825,3.23c3.473,0.936,4.409,3.735,1.87,6.325
		c-4.343,4.431-9.059,8.497-13.618,12.717C137.498,45.02,137.111,44.692,136.725,44.365z"/>
	<path d="M44.454,124.287c0-7.064,0-14.127,0-21.531c-2.508,0-4.416,0-7.214,0c2.182,3.941,4.181,7.552,6.181,11.163
		c-0.626,0.356-1.253,0.711-1.879,1.067c-2.518-4.075-5.136-8.096-7.4-12.308c-0.23-0.428,1.628-2.858,2.583-2.901
		c5.975-0.27,11.969-0.174,17.956-0.101c3.138,0.038,3.177,2.315,2.158,4.17c-2.111,3.843-4.662,7.445-7.032,11.146
		c-0.53-0.252-1.059-0.504-1.589-0.757c1.773-3.64,3.545-7.28,5.624-11.551c-2.372-0.117-4.112-0.203-6.371-0.315
		c-0.971,7.467,0.758,14.977-0.884,22.109C45.875,124.416,45.164,124.351,44.454,124.287z"/>
	<path d="M149.419,124.226c0-8.367,0-16.132,0-24.643c2.539,0,5.123-0.014,7.706,0.004c3.073,0.021,5.467,0.624,3.984,4.625
		c-0.21,0.567-0.362,1.555-0.057,1.854c3.178,3.109,3.041,6.524,0.76,9.888C158.969,120.146,155.373,123.441,149.419,124.226z
		 M152.627,107.171c0,4.307,0,8.249,0,12.374c5.252-2.145,8.257-5.844,7.41-8.986C159.033,106.829,156.182,106.554,152.627,107.171z
		"/>
	<path d="M126.38,113.723c-0.037-10.537,4.388-15.127,12.155-13.899c1.502,0.238,3.129,1.12,4.236,2.185
		c5.108,4.915,4.816,15.522-0.404,20.305c-4.136,3.79-11.579,2.618-14.096-2.46C127.117,117.528,126.708,114.834,126.38,113.723z
		 M128.989,112.147c0.035,5.373,3.271,9.575,7.377,9.581c4.199,0.005,7.318-4.43,7.193-10.226c-0.129-5.964-2.844-9.242-7.557-9.123
		C131.913,102.482,128.952,106.606,128.989,112.147z"/>
	<path d="M110.543,111.687c0.002,9.728-6.122,15.081-13.767,12.033c-4.927-1.964-7.635-9.873-5.62-16.414
		c1.9-6.167,6.408-8.847,12.561-7.466C107.996,100.801,110.542,105.219,110.543,111.687z M108.528,110.377
		c-1.482-2.211-2.817-5.492-5.246-7.316c-1.342-1.007-4.995-0.281-6.768,0.911c-3.654,2.456-4.193,10.117-1.61,14.207
		c2.948,4.667,8.441,4.816,11.276,0.06C107.303,116.357,107.511,113.93,108.528,110.377z"/>
	<path d="M92.185,21.144c3.849-0.235,8.601-0.661,13.354-0.681c0.807-0.003,1.622,1.735,3.236,3.592
		c-2.41,0-3.207,0.004-4.005-0.001C94.621,24,94.343,24.382,95.233,34.659c0.486,5.61,0.774,11.242,0.925,16.87
		c0.026,0.964-1.089,1.959-1.677,2.94c-0.765-0.981-2.179-1.952-2.196-2.946C92.12,41.622,92.185,31.716,92.185,21.144z"/>
	<path d="M87.572,99.933c0,7.576,0.009,14.862-0.016,22.149c-0.002,0.629-0.236,1.258-0.425,2.2c-4.133,0-8.169,0-12.169,0
		C72.96,110.988,79.435,99.819,87.572,99.933z M84.794,104.365c-0.509-0.131-1.017-0.261-1.526-0.392
		c-4.475,3.834-5.878,9.186-6.272,14.802c-0.065,0.924,2.21,2.845,3.363,2.814c1.499-0.04,4.141-1.464,4.234-2.481
		C85.04,114.229,84.794,109.286,84.794,104.365z"/>
	<path d="M178.947,99.962c0,8.367,0,16.413,0,24.459c-0.504,0.294-1.009,0.588-1.513,0.882c-0.259-5.381-0.291-11.035-7.829-7.811
		c-0.359,2.263-0.738,4.648-1.302,8.198C163.16,115.556,170.197,100.547,178.947,99.962z M176.446,113.609c0-3.394,0-6.47,0-9.545
		c-0.505-0.164-1.009-0.328-1.514-0.491c-1.769,3.106-3.539,6.213-5.717,10.037C172.669,113.609,174.576,113.609,176.446,113.609z"
		/>
	<path d="M72.146,121.864c-0.696,3.117-5.11,3.807-13.109,2.036c0-7.888,0-15.823,0-24.002c3.919,0,7.829,0,11.738,0
		c0.134,0.562,0.269,1.124,0.403,1.686c-2.695,0.546-5.39,1.093-8.593,1.742c2.801,0.635,5.124,1.163,7.448,1.69
		c-0.066,0.348-0.133,0.696-0.199,1.044c-2.501,0.685-6.683,0.784-7.168,2.172c-1.144,3.281-1.263,7.346-0.462,10.783
		C63.573,124.881,68.605,120.425,72.146,121.864z"/>
	<path d="M122.292,63.297c0,7.922,0,15.829,0,24.217c-4.072-1.617,0.521-7.926-5.781-7.938c-6.294-0.012-2.744,5.658-5.247,7.66
		C106.233,79.216,113.232,64.268,122.292,63.297z M118.12,66.723c-1.76,3.21-3.52,6.42-5.469,9.972
		C120.629,77.959,121.67,76.195,118.12,66.723z"/>
	<path d="M94.552,71.372c0,5.138,0,10.449,0,15.759c-0.483-0.016-0.965-0.031-1.448-0.047c0-8.025,0-16.05,0-24.076
		c0.315-0.087,0.63-0.174,0.945-0.261c0.492,1.511,0.985,3.021,1.478,4.533c6.322,0.84,6.696,0.659,8.528-4.131
		c2.115,2.115,2.657,18.551,0.441,24.769c-0.629-1.568-1.229-2.423-1.277-3.308c-0.135-2.489-0.04-4.991-0.039-7.488
		C103.183,69.446,103.182,69.446,94.552,71.372z"/>
	<path d="M114.185,124.333c-0.286-0.348-0.82-0.694-0.822-1.043c-0.048-7.652-0.036-15.305-0.036-23.333c3.988,0,8.026,0,13.965,0
		c-3.315,5.82-6.031,10.586-8.746,15.353c-0.625-0.321-1.249-0.641-1.874-0.962c1.871-3.623,3.742-7.245,5.934-11.488
		c-2.377,0-4.195,0-6.927,0c0,7.12,0,14.274,0,21.429C115.18,124.304,114.682,124.318,114.185,124.333z"/>
	<path fill="#FFFFFF" d="M201.967,55.676c-2.396,3.089-4.48,5.775-7.592,9.788c0-4.985-0.129-8.578,0.153-12.138
		c0.038-0.48,2.373-1.391,3.237-1.055C199.187,52.825,200.276,54.234,201.967,55.676z"/>
	<path fill="#FFFFFF" d="M121.701,26.726c-0.246,4.558-0.492,9.117-0.791,14.661c-3.715-0.853-6.628-1.522-9.542-2.191
		c1.177-2.674,2.039-5.556,3.626-7.96c1.365-2.069,3.557-3.593,5.383-5.358C120.818,26.161,121.26,26.444,121.701,26.726z"/>
	<path fill="#FFFFFF" d="M152.627,107.171c3.555-0.617,6.405-0.342,7.41,3.388c0.847,3.142-2.158,6.841-7.41,8.986
		C152.627,115.42,152.627,111.478,152.627,107.171z"/>
	<path fill="#FFFFFF" d="M128.989,112.147c-0.036-5.541,2.924-9.666,7.013-9.769c4.713-0.119,7.428,3.159,7.557,9.123
		c0.125,5.797-2.994,10.232-7.193,10.226C132.26,121.723,129.024,117.52,128.989,112.147z"/>
	<path fill="#FFFFFF" d="M108.528,110.377c-1.017,3.553-1.225,5.98-2.347,7.862c-2.836,4.757-8.329,4.608-11.276-0.06
		c-2.583-4.09-2.044-11.751,1.61-14.207c1.773-1.192,5.426-1.919,6.768-0.911C105.711,104.886,107.046,108.167,108.528,110.377z"/>
	<path fill="#FFFFFF" d="M84.794,104.365c0,4.92,0.246,9.863-0.201,14.743c-0.093,1.017-2.735,2.44-4.234,2.481
		c-1.153,0.031-3.428-1.89-3.363-2.814c0.394-5.616,1.797-10.968,6.272-14.802C83.776,104.104,84.285,104.235,84.794,104.365z"/>
	<path fill="#FFFFFF" d="M176.446,113.609c-1.869,0-3.777,0-7.231,0c2.178-3.824,3.948-6.93,5.717-10.037
		c0.505,0.164,1.009,0.328,1.514,0.491C176.446,107.139,176.446,110.215,176.446,113.609z"/>
	<path fill="#FFFFFF" d="M118.12,66.723c3.551,9.472,2.51,11.236-5.469,9.972C114.599,73.143,116.359,69.933,118.12,66.723z"/>
</g>
</svg>
